# xmcd CD database file
#
# Track frame offsets:
#	150
#	17631
#	35140
#	59818
#
# Disc length: 1125 seconds
#
# Revision: 2
# Processed by: cddbd v1.4b41PL1 Copyright (c) Steve Scherf et al.
# Submitted via: Feurio! 1.52 - http://www.feurio.com
#
DISCID=35046304
DTITLE=Koala - Indian Spirits
DYEAR=1900
DGENRE=
TTITLE0=Indian Spirits (short cut vocal)
TTITLE1=Indian Spirits (short cut instrumental)
TTITLE2=Indian Spirits (extended vocal version)
TTITLE3=Indian Spirits (club base)
EXTD=
EXTT0=
EXTT1=
EXTT2=
EXTT3=
PLAYORDER=
